<mxfile host="Electron" modified="2023-11-29T10:23:46.772Z" agent="Mozilla/5.0 (Macintosh; Intel Mac OS X 10_15_7) AppleWebKit/537.36 (KHTML, like Gecko) draw.io/22.1.2 Chrome/114.0.5735.289 Electron/25.9.4 Safari/537.36" etag="RXHz9tyFVigukcEL3iyz" version="22.1.2" type="device">
  <diagram name="Page-1" id="5bI8awW7hyDXVu0PRGQD">
    <mxGraphModel dx="1026" dy="658" grid="1" gridSize="10" guides="1" tooltips="1" connect="1" arrows="1" fold="1" page="1" pageScale="1" pageWidth="827" pageHeight="1169" math="0" shadow="0">
      <root>
        <mxCell id="0" />
        <mxCell id="1" parent="0" />
        <mxCell id="ldEVHbRmjYEtTZCt09EJ-8" value="spring-petclinic-rest" style="rounded=0;whiteSpace=wrap;html=1;verticalAlign=top;fillColor=#d5e8d4;strokeColor=#82b366;" vertex="1" parent="1">
          <mxGeometry x="280" y="110" width="330" height="230" as="geometry" />
        </mxCell>
        <mxCell id="ldEVHbRmjYEtTZCt09EJ-7" value="spring-petclinic-anuglar" style="rounded=0;whiteSpace=wrap;html=1;verticalAlign=top;fillColor=#f8cecc;strokeColor=#b85450;" vertex="1" parent="1">
          <mxGeometry x="70" y="110" width="140" height="230" as="geometry" />
        </mxCell>
        <mxCell id="ldEVHbRmjYEtTZCt09EJ-5" value="REST" style="edgeStyle=orthogonalEdgeStyle;rounded=0;orthogonalLoop=1;jettySize=auto;html=1;" edge="1" parent="1" source="ldEVHbRmjYEtTZCt09EJ-1" target="ldEVHbRmjYEtTZCt09EJ-2">
          <mxGeometry relative="1" as="geometry" />
        </mxCell>
        <mxCell id="ldEVHbRmjYEtTZCt09EJ-1" value="Web Frontend" style="rounded=0;whiteSpace=wrap;html=1;fillColor=#dae8fc;strokeColor=#6c8ebf;" vertex="1" parent="1">
          <mxGeometry x="80" y="200" width="120" height="60" as="geometry" />
        </mxCell>
        <mxCell id="ldEVHbRmjYEtTZCt09EJ-4" value="JDBC" style="edgeStyle=orthogonalEdgeStyle;rounded=0;orthogonalLoop=1;jettySize=auto;html=1;" edge="1" parent="1" source="ldEVHbRmjYEtTZCt09EJ-2" target="ldEVHbRmjYEtTZCt09EJ-3">
          <mxGeometry relative="1" as="geometry">
            <Array as="points">
              <mxPoint x="490" y="230" />
              <mxPoint x="490" y="230" />
            </Array>
          </mxGeometry>
        </mxCell>
        <mxCell id="ldEVHbRmjYEtTZCt09EJ-2" value="Java Backend" style="rounded=0;whiteSpace=wrap;html=1;fillColor=#dae8fc;strokeColor=#6c8ebf;" vertex="1" parent="1">
          <mxGeometry x="320" y="200" width="120" height="60" as="geometry" />
        </mxCell>
        <mxCell id="ldEVHbRmjYEtTZCt09EJ-3" value="Data Base" style="shape=cylinder3;whiteSpace=wrap;html=1;boundedLbl=1;backgroundOutline=1;size=15;fillColor=#dae8fc;strokeColor=#6c8ebf;" vertex="1" parent="1">
          <mxGeometry x="520" y="190" width="60" height="80" as="geometry" />
        </mxCell>
      </root>
    </mxGraphModel>
  </diagram>
</mxfile>
